<?xml version="1.0" encoding="UTF-8"?> <svg xmlns="http://www.w3.org/2000/svg" id="Layer_1" data-name="Layer 1" viewBox="0 0 457.96 58.82"><defs><style>.cls-1{fill:#fff;}</style></defs><path class="cls-1" d="M25.94.55,0,57.88H8.43L15,43.32H43.71l6.45,14.56H58.9L33,.55Zm14.5,35.32H18.23L29.37,11Z"></path><path class="cls-1" d="M114.7,33.89C114.7,45,109.14,51.12,99,51.12S83.15,44.7,83.15,33.5V.94H75.06v33c0,15.33,9.13,24.85,23.82,24.85,15,0,23.91-9.46,23.91-25.32V.94H114.7Z"></path><path class="cls-1" d="M189.53,43.52c-4.82,4.61-9.59,7.68-17.12,7.68C161,51.2,152,41.63,152,29.41v-.16c0-12.33,8.76-21.64,20.38-21.64,6.29,0,11.27,2.19,16.65,7.3l.69.65,5.53-5.94L194.6,9c-4.95-4.67-11.06-9-22.12-9C156.35,0,143.7,12.92,143.7,29.41v.16c0,16.67,12.28,29.25,28.55,29.25,11.34,0,17.83-5,22.69-10l.66-.67-5.41-5.31Z"></path><polygon class="cls-1" points="211.27 8.56 229.75 8.56 229.75 57.88 237.91 57.88 237.91 8.56 256.4 8.56 256.4 0.94 211.27 0.94 211.27 8.56"></polygon><path class="cls-1" d="M291.78.55,265.84,57.88h8.43l6.53-14.56h28.75L316,57.88h8.75L298.81.55Zm14.5,35.32h-22.2L295.21,11Z"></path><polygon class="cls-1" points="383.26 43.3 349.97 0.94 342.75 0.94 342.75 57.88 350.68 57.88 350.68 14.49 384.84 57.88 391.19 57.88 391.19 0.94 383.26 0.94 383.26 43.3"></polygon><polygon class="cls-1" points="423.99 50.34 423.99 32.94 454.03 32.94 454.03 25.41 423.99 25.41 423.99 8.48 457.57 8.48 457.57 0.94 415.9 0.94 415.9 57.88 457.96 57.88 457.96 50.34 423.99 50.34"></polygon></svg> 